<svg width="52" height="66" viewBox="0 0 52 66" fill="none" xmlns="http://www.w3.org/2000/svg">
<g filter="url(#filter0_d_2264_4407)">
<circle cx="26" cy="25" r="19.4286" fill="white"/>
<path d="M50 24.9908C50 42.75 25.9723 62.1429 25.9723 62.1429C25.9723 62.1429 2 42.75 2 24.9908C2 11.8714 12.853 1 25.9723 1C39.1101 1 50 11.8714 50 24.9908ZM20.9973 12.3136C18.6941 12.3136 17.4964 13.5482 17.4964 15.8514V36.4702C17.4964 37.3731 17.9754 37.9074 18.7309 37.9074C19.2837 37.9074 19.6153 37.5942 20.5735 36.6545L25.8802 31.3477C25.9539 31.2925 26.046 31.2925 26.1013 31.3477L31.4265 36.6545C32.3662 37.5942 32.6979 37.9074 33.2691 37.9074C34.0061 37.9074 34.4852 37.3731 34.4852 36.4702V15.8514C34.4852 13.5482 33.2875 12.3136 30.9843 12.3136H20.9973Z" fill="#28CD41"/>
</g>
<defs>
<filter id="filter0_d_2264_4407" x="0" y="0" width="52" height="65.1428" filterUnits="userSpaceOnUse" color-interpolation-filters="sRGB">
<feFlood flood-opacity="0" result="BackgroundImageFix"/>
<feColorMatrix in="SourceAlpha" type="matrix" values="0 0 0 0 0 0 0 0 0 0 0 0 0 0 0 0 0 0 127 0" result="hardAlpha"/>
<feOffset dy="1"/>
<feGaussianBlur stdDeviation="1"/>
<feComposite in2="hardAlpha" operator="out"/>
<feColorMatrix type="matrix" values="0 0 0 0 0 0 0 0 0 0 0 0 0 0 0 0 0 0 0.3 0"/>
<feBlend mode="normal" in2="BackgroundImageFix" result="effect1_dropShadow_2264_4407"/>
<feBlend mode="normal" in="SourceGraphic" in2="effect1_dropShadow_2264_4407" result="shape"/>
</filter>
</defs>
</svg>
