<svg width="52" height="66" viewBox="0 0 52 66" fill="none" xmlns="http://www.w3.org/2000/svg">
<g filter="url(#filter0_d_2264_4415)">
<circle cx="26" cy="25" r="20.5714" fill="white"/>
<path d="M50 24.99C50 42.75 25.9723 62.14 25.9723 62.14C25.9723 62.14 2 42.75 2 24.99C2 11.87 12.853 1 25.9723 1C39.1102 1 50 11.87 50 24.99ZM12.9451 16.9929C12.8161 17.2226 12.7977 17.3287 12.7977 17.7174V33.3746C12.7977 33.7987 13.1109 34.0814 13.5716 34.0814C13.848 34.0814 14.0691 34.0108 14.2902 33.834C15.6722 32.65 17.6069 31.9785 19.6891 31.9785C21.4211 31.9785 23.061 32.544 24.4246 33.6396C24.5536 33.7457 24.6641 33.7987 24.8115 33.7987C25.0695 33.7987 25.2353 33.622 25.2353 33.3746V17.0283C25.2353 16.7455 25.2353 16.6748 25.0326 16.4097C23.7981 14.8723 21.716 13.971 19.3942 13.971C16.833 13.971 14.1243 15.0667 12.9451 16.9929ZM26.9858 16.4097C26.7831 16.6748 26.7647 16.7455 26.7647 17.0283V33.3746C26.7647 33.622 26.9489 33.7987 27.2069 33.7987C27.3543 33.7987 27.4649 33.7457 27.5939 33.6396C28.9574 32.544 30.6157 31.9785 32.311 31.9785C34.4299 31.9785 36.3647 32.65 37.7282 33.834C37.9309 34.0108 38.152 34.0814 38.4284 34.0814C38.9074 34.0814 39.2207 33.7987 39.2207 33.3746V17.7174C39.2207 17.3287 39.2023 17.2049 39.0733 16.9929C37.8756 15.0667 35.167 13.971 32.6242 13.971C30.3025 13.971 28.2204 14.8723 26.9858 16.4097Z" fill="#FFCC00"/>
</g>
<defs>
<filter id="filter0_d_2264_4415" x="0" y="0" width="52" height="65.14" filterUnits="userSpaceOnUse" color-interpolation-filters="sRGB">
<feFlood flood-opacity="0" result="BackgroundImageFix"/>
<feColorMatrix in="SourceAlpha" type="matrix" values="0 0 0 0 0 0 0 0 0 0 0 0 0 0 0 0 0 0 127 0" result="hardAlpha"/>
<feOffset dy="1"/>
<feGaussianBlur stdDeviation="1"/>
<feComposite in2="hardAlpha" operator="out"/>
<feColorMatrix type="matrix" values="0 0 0 0 0 0 0 0 0 0 0 0 0 0 0 0 0 0 0.3 0"/>
<feBlend mode="normal" in2="BackgroundImageFix" result="effect1_dropShadow_2264_4415"/>
<feBlend mode="normal" in="SourceGraphic" in2="effect1_dropShadow_2264_4415" result="shape"/>
</filter>
</defs>
</svg>
