<svg width="20" height="20" viewBox="0 0 20 20" fill="none" xmlns="http://www.w3.org/2000/svg">
<path d="M12.5426 16.1702L11.939 17.8973C11.8768 18.0766 11.7654 18.2223 11.6049 18.3344C11.4445 18.4466 11.2676 18.5027 11.0745 18.5027C10.7568 18.5027 10.5004 18.3724 10.3051 18.1117C10.1099 17.851 10.0729 17.5635 10.1938 17.2492L13.2909 8.90898C13.3702 8.71968 13.4935 8.56648 13.6607 8.4494C13.8278 8.33218 14.0129 8.27356 14.2161 8.27356H14.9457C15.1489 8.27356 15.334 8.33218 15.5011 8.4494C15.6683 8.56648 15.7916 8.71968 15.8709 8.90898L18.968 17.26C19.089 17.5638 19.0545 17.8468 18.8647 18.1092C18.6748 18.3716 18.4194 18.5027 18.0984 18.5027C17.8945 18.5027 17.7142 18.4466 17.5574 18.3344C17.4006 18.2223 17.2841 18.0697 17.208 17.8765L16.6092 16.1702H12.5426ZM7.42216 11.895L3.91674 15.3846C3.73744 15.5639 3.51903 15.6554 3.26153 15.659C3.00417 15.6626 2.78056 15.5695 2.5907 15.3796C2.41126 15.2002 2.32153 14.9783 2.32153 14.714C2.32153 14.4497 2.41126 14.2279 2.5907 14.0486L6.10112 10.5381C5.58181 10.0122 5.12007 9.43586 4.71591 8.80919C4.31174 8.18252 3.94966 7.48829 3.62966 6.72648H5.66862C5.91973 7.21495 6.18251 7.65231 6.45695 8.03856C6.73153 8.42468 7.0566 8.81412 7.43216 9.2069C7.88382 8.74204 8.34869 8.11051 8.82674 7.31231C9.30494 6.51412 9.66403 5.76329 9.90403 5.05981H1.58195C1.31598 5.05981 1.09153 4.96836 0.908617 4.78544C0.725561 4.60238 0.634033 4.37787 0.634033 4.1119C0.634033 3.84593 0.725561 3.62141 0.908617 3.43836C1.09153 3.25544 1.31598 3.16398 1.58195 3.16398H6.46737V2.44523C6.46737 2.17926 6.55889 1.95474 6.74195 1.77169C6.92487 1.58877 7.14931 1.49731 7.41528 1.49731C7.68139 1.49731 7.90591 1.58877 8.08883 1.77169C8.27174 1.95474 8.3632 2.17926 8.3632 2.44523V3.16398H13.2486C13.5147 3.16398 13.7392 3.25544 13.9222 3.43836C14.1051 3.62141 14.1965 3.84593 14.1965 4.1119C14.1965 4.37787 14.1051 4.60238 13.9222 4.78544C13.7392 4.96836 13.5147 5.05981 13.2486 5.05981H11.8497C11.5513 6.04315 11.1081 7.06093 10.5199 8.11315C9.93153 9.16551 9.34264 9.98606 8.7532 10.5748L10.514 12.3723L9.80445 14.3348L7.42216 11.895ZM13.1332 14.4827H16.0136L14.5734 10.3623L13.1332 14.4827Z" fill="#5E6366"/>
</svg>
