<svg width="28" height="29" viewBox="0 0 28 29" fill="none" xmlns="http://www.w3.org/2000/svg">
<path d="M12.3456 16.3559L10.0187 14.0289C9.77704 13.7871 9.47225 13.6661 9.10436 13.6661C8.73666 13.6661 8.43187 13.7871 8.18998 14.0289C7.94829 14.2706 7.82861 14.5754 7.83094 14.9433C7.83327 15.311 7.95529 15.6157 8.19698 15.8574L11.4106 19.071C11.6781 19.3368 11.9903 19.4697 12.3471 19.4697C12.7037 19.4697 13.015 19.3368 13.281 19.071L19.768 12.5837C20.0099 12.342 20.1308 12.0385 20.1308 11.6732C20.1308 11.3076 20.0099 11.004 19.768 10.7623C19.5263 10.5204 19.2215 10.3994 18.8536 10.3994C18.4859 10.3994 18.1812 10.5204 17.9395 10.7623L12.3456 16.3559ZM14 26.4038C12.349 26.4038 10.7998 26.0915 9.35257 25.4669C7.90512 24.8424 6.64609 23.9949 5.57548 22.9245C4.50507 21.8539 3.65758 20.5948 3.03302 19.1474C2.40847 17.7001 2.09619 16.151 2.09619 14.5C2.09619 12.849 2.40847 11.2998 3.03302 9.85257C3.65758 8.40512 4.50507 7.14609 5.57548 6.07548C6.64609 5.00507 7.90512 4.15758 9.35257 3.53302C10.7998 2.90847 12.349 2.59619 14 2.59619C15.651 2.59619 17.2001 2.90847 18.6474 3.53302C20.0948 4.15758 21.3539 5.00507 22.4245 6.07548C23.4949 7.14609 24.3424 8.40512 24.9669 9.85257C25.5915 11.2998 25.9038 12.849 25.9038 14.5C25.9038 16.151 25.5915 17.7001 24.9669 19.1474C24.3424 20.5948 23.4949 21.8539 22.4245 22.9245C21.3539 23.9949 20.0948 24.8424 18.6474 25.4669C17.2001 26.0915 15.651 26.4038 14 26.4038Z" fill="#FCC118"/>
<path d="M12.3456 16.3559L10.0187 14.0289C9.77704 13.7871 9.47225 13.6661 9.10436 13.6661C8.73666 13.6661 8.43187 13.7871 8.18998 14.0289C7.94829 14.2706 7.82861 14.5754 7.83094 14.9433C7.83327 15.311 7.95529 15.6157 8.19698 15.8574L11.4106 19.071C11.6781 19.3368 11.9903 19.4697 12.3471 19.4697C12.7037 19.4697 13.015 19.3368 13.281 19.071L19.768 12.5837C20.0099 12.342 20.1308 12.0385 20.1308 11.6732C20.1308 11.3076 20.0099 11.004 19.768 10.7623C19.5263 10.5204 19.2215 10.3994 18.8536 10.3994C18.4859 10.3994 18.1812 10.5204 17.9395 10.7623L12.3456 16.3559Z" fill="white"/>
</svg>
