<svg width="28" height="29" viewBox="0 0 28 29" fill="none" xmlns="http://www.w3.org/2000/svg">
<path d="M14 26.4038C12.349 26.4038 10.7998 26.0915 9.35257 25.4669C7.90512 24.8424 6.64609 23.9949 5.57548 22.9245C4.50507 21.8539 3.65758 20.5948 3.03302 19.1474C2.40847 17.7001 2.09619 16.151 2.09619 14.5C2.09619 12.849 2.40847 11.2998 3.03302 9.85257C3.65758 8.40512 4.50507 7.14609 5.57548 6.07548C6.64609 5.00507 7.90512 4.15758 9.35257 3.53302C10.7998 2.90847 12.349 2.59619 14 2.59619C15.651 2.59619 17.2001 2.90847 18.6474 3.53302C20.0948 4.15758 21.3539 5.00507 22.4245 6.07548C23.4949 7.14609 24.3424 8.40512 24.9669 9.85257C25.5915 11.2998 25.9038 12.849 25.9038 14.5C25.9038 16.151 25.5915 17.7001 24.9669 19.1474C24.3424 20.5948 23.4949 21.8539 22.4245 22.9245C21.3539 23.9949 20.0948 24.8424 18.6474 25.4669C17.2001 26.0915 15.651 26.4038 14 26.4038Z" fill="#FD8E4D"/>
<path d="M11.8804 16.6516H9.90945C9.60556 16.6516 9.38106 16.5162 9.23595 16.2454C9.09095 15.9746 9.10684 15.7122 9.28362 15.4581L14.4663 8.0004C14.5854 7.83418 14.7398 7.71924 14.9294 7.65557C15.1192 7.59179 15.3126 7.59585 15.5094 7.66774C15.7062 7.73974 15.8537 7.86374 15.9519 8.03974C16.0502 8.21574 16.0868 8.40479 16.0619 8.6069L15.5166 13.0152H18.0123C18.3384 13.0152 18.5684 13.1603 18.7023 13.4504C18.8363 13.7405 18.7968 14.0113 18.5839 14.2627L12.8974 21.0884C12.7672 21.2435 12.6079 21.3433 12.4194 21.3877C12.2311 21.4322 12.0469 21.4142 11.8669 21.3337C11.6871 21.2533 11.5479 21.1272 11.4494 20.9556C11.351 20.7838 11.3142 20.5981 11.3391 20.3986L11.8804 16.6516Z" fill="white"/>
</svg>
