<svg width="20" height="20" viewBox="0 0 20 20" fill="none" xmlns="http://www.w3.org/2000/svg">
<path d="M15.963 9.97928C15.963 8.83317 15.6583 7.78526 15.0488 6.83553C14.4394 5.88581 13.624 5.17317 12.6028 4.69762C12.3879 4.59706 12.2319 4.44109 12.1346 4.2297C12.0374 4.01831 12.0268 3.80352 12.1028 3.58533C12.1894 3.3531 12.3446 3.18671 12.5682 3.08616C12.7918 2.9856 13.0181 2.9856 13.2469 3.08616C14.6008 3.69671 15.6822 4.62067 16.4911 5.85803C17.2999 7.09553 17.7042 8.46928 17.7042 9.97928C17.7042 11.4893 17.2999 12.863 16.4911 14.1005C15.6822 15.3379 14.6008 16.2619 13.2469 16.8724C13.0181 16.973 12.7918 16.973 12.5682 16.8724C12.3446 16.7719 12.1894 16.6055 12.1028 16.3732C12.0268 16.155 12.0374 15.9403 12.1346 15.7289C12.2319 15.5175 12.3879 15.3615 12.6028 15.261C13.624 14.7854 14.4394 14.0728 15.0488 13.123C15.6583 12.1733 15.963 11.1254 15.963 9.97928ZM5.72882 12.6695H3.24382C2.9777 12.6695 2.75319 12.578 2.57027 12.3951C2.38736 12.2121 2.2959 11.9875 2.2959 11.7216V8.27866C2.2959 8.01269 2.38736 7.78817 2.57027 7.60512C2.75319 7.4222 2.9777 7.33074 3.24382 7.33074H5.72882L8.51361 4.54595C8.81402 4.2454 9.15847 4.1772 9.54694 4.34137C9.93541 4.50553 10.1296 4.79998 10.1296 5.2247V14.7755C10.1296 15.2003 9.93541 15.4947 9.54694 15.6589C9.15847 15.823 8.81402 15.7548 8.51361 15.4543L5.72882 12.6695ZM13.9542 10.0001C13.9542 10.5901 13.819 11.148 13.5486 11.6739C13.2781 12.1997 12.9208 12.6342 12.4769 12.9774C12.3281 13.0674 12.1774 13.0709 12.0251 12.9878C11.8726 12.9048 11.7963 12.775 11.7963 12.5985V7.36012C11.7963 7.18359 11.8726 7.05463 12.0251 6.97324C12.1774 6.89185 12.3281 6.89616 12.4769 6.98616C12.9208 7.34324 13.2781 7.78734 13.5486 8.31845C13.819 8.84956 13.9542 9.41012 13.9542 10.0001Z" fill="#5E6366"/>
</svg>
